0
SECTION
2
HEADER
9
$INSUNITS
70
4
9
$MEASUREMENT
70
1
9
$EXTMIN
10
0.0
20
0.0
30
0.0
9
$EXTMAX
10
118.5000
20
64.5000
30
0.0
0
ENDSEC
0
SECTION
2
TABLES
0
TABLE
2
LAYER
70
1
0
LAYER
2
CUT
70
0
62
7
6
CONTINUOUS
0
ENDTAB
0
ENDSEC
0
SECTION
2
ENTITIES
0
LINE
8
CUT
10
3.0000
20
0.0000
30
0.0
11
115.5000
21
0.0000
31
0.0
0
LINE
8
CUT
10
118.5000
20
3.0000
30
0.0
11
118.5000
21
61.5000
31
0.0
0
LINE
8
CUT
10
115.5000
20
64.5000
30
0.0
11
3.0000
21
64.5000
31
0.0
0
LINE
8
CUT
10
0.0000
20
61.5000
30
0.0
11
0.0000
21
3.0000
31
0.0
0
ARC
8
CUT
10
115.5000
20
3.0000
30
0.0
40
3.0000
50
270.0000
51
360.0000
0
ARC
8
CUT
10
115.5000
20
61.5000
30
0.0
40
3.0000
50
0.0000
51
90.0000
0
ARC
8
CUT
10
3.0000
20
61.5000
30
0.0
40
3.0000
50
90.0000
51
180.0000
0
ARC
8
CUT
10
3.0000
20
3.0000
30
0.0
40
3.0000
50
180.0000
51
270.0000
0
CIRCLE
8
CUT
10
3.2500
20
3.7500
30
0.0
40
1.4000
0
CIRCLE
8
CUT
10
3.2500
20
60.7500
30
0.0
40
1.4000
0
CIRCLE
8
CUT
10
115.2500
20
3.7500
30
0.0
40
1.4000
0
CIRCLE
8
CUT
10
115.2500
20
60.7500
30
0.0
40
1.4000
0
LINE
8
CUT
10
32.7000
20
51.0000
30
0.0
11
32.7000
21
58.0000
31
0.0
0
LINE
8
CUT
10
25.7000
20
58.0000
30
0.0
11
25.7000
21
51.0000
31
0.0
0
ARC
8
CUT
10
29.2000
20
58.0000
30
0.0
40
3.5000
50
0.0000
51
180.0000
0
ARC
8
CUT
10
29.2000
20
51.0000
30
0.0
40
3.5000
50
180.0000
51
360.0000
0
ENDSEC
0
EOF
